PathFileType	4	(X/Y/Z)	SUBJ94_4_walk_RCNL2025.trc
DataRate	CameraRate	NumFrames	NumMarkers	Units	OrigDataRate	OrigDataStartFrame	OrigNumFrames
100	100	6	25	mm	100	38	297
Frame#	Time	R_Shoulder			L_Shoulder			C7			J_Notch			R_Elbow			L_Elbow			R_Wrist			L_Wrist			R_Asis			L_Asis			Sacral			Thoracic			Sternum			R_Thigh_Lateral			R_Knee_Lateral			R_Shank_Lateral			R_Ankle_Lateral			R_Heel			R_Toe			L_Thigh_Lateral			L_Knee_Lateral			L_Shank_Lateral			L_Ankle_Lateral			L_Heel			L_Toe		
		X1	Y1	Z1	X2	Y2	Z2	X3	Y3	Z3	X4	Y4	Z4	X5	Y5	Z5	X6	Y6	Z6	X7	Y7	Z7	X8	Y8	Z8	X9	Y9	Z9	X10	Y10	Z10	X11	Y11	Z11	X12	Y12	Z12	X13	Y13	Z13	X14	Y14	Z14	X15	Y15	Z15	X16	Y16	Z16	X17	Y17	Z17	X18	Y18	Z18	X19	Y19	Z19	X20	Y20	Z20	X21	Y21	Z21	X22	Y22	Z22	X23	Y23	Z23	X24	Y24	Z24	X25	Y25	Z25
38	0.37000000	-972.312805	1267.121582	-222.284119	-1009.553894	1257.798462	-600.730591	-1058.946655	1346.354126	-405.972076	-942.740906	1255.034302	-419.548676	-991.658203	983.009521	-138.188461	-1079.879395	977.311157	-652.737000	-855.583069	807.587463	-178.581421	-976.532776	770.136047	-670.834137	-953.599243	869.871094	-271.768311	-932.337646	878.792175	-496.159943	-1134.297485	925.788208	-402.546082	-1125.345581	1145.564087	-401.370544	-911.019165	1061.312500	-403.976318	-1000.241272	517.476318	-199.594101	-1000.575439	427.890808	-253.467361	-1135.780029	313.455017	-227.504578	-1291.709839	193.260864	-317.668854	-1310.341919	228.753113	-369.443542	-1240.368408	68.220436	-343.469482	-934.951965	539.282227	-582.022583	-932.334351	440.873138	-523.410828	-916.187012	256.901245	-576.772461	-951.878723	56.539177	-474.996674	-993.511780	47.267338	-427.394775	-828.749451	44.315796	-441.236084
39	0.38000000	-962.273682	1268.156738	-221.611572	-997.464294	1259.576294	-600.368530	-1048.031738	1347.614624	-405.813629	-931.593384	1256.658813	-418.955566	-983.399597	983.521179	-139.084671	-1065.828369	978.840515	-653.643738	-849.827179	805.703033	-177.425949	-960.242462	772.822754	-671.625732	-942.713501	871.150024	-272.335449	-921.435303	879.773193	-496.813568	-1123.183228	927.304993	-403.080444	-1114.024780	1146.700317	-401.873718	-899.612610	1062.850464	-403.342743	-981.195374	519.098022	-199.760284	-978.015137	429.905853	-253.357742	-1112.323486	315.683685	-227.340561	-1268.360352	195.634018	-317.615479	-1287.405518	230.320923	-369.668823	-1215.009521	71.438347	-341.735901	-929.775208	539.344849	-582.694031	-928.380676	440.801422	-524.051025	-915.260010	256.520844	-577.253540	-951.716980	56.664886	-474.887726	-993.427551	47.349121	-427.348267	-828.744263	44.455498	-441.371399
40	0.39000000	-952.362976	1269.139038	-220.849350	-985.526367	1261.331909	-599.922729	-1037.203125	1348.830811	-405.576660	-920.546204	1258.242432	-418.266144	-975.271362	983.991089	-139.935394	-1051.771729	980.320984	-654.421875	-844.289032	803.789520	-176.150764	-943.803589	775.563477	-672.322083	-931.910156	872.544067	-272.878632	-910.636963	880.580566	-497.456421	-1112.134644	928.830811	-403.748779	-1102.786987	1147.793457	-402.343536	-888.315063	1064.356934	-402.622528	-962.281738	521.172424	-200.038025	-955.609863	432.368469	-253.372375	-1088.324829	317.469910	-227.248413	-1243.843384	196.520523	-317.556580	-1263.677124	230.223907	-369.805084	-1187.348755	74.028130	-340.269318	-924.986572	539.277222	-583.286255	-924.790771	440.654327	-524.626099	-914.872192	256.136566	-577.710510	-951.626648	56.769245	-474.711945	-993.380981	47.396549	-427.208466	-828.785400	44.611652	-441.500275
41	0.40000000	-942.562256	1270.053345	-220.011398	-973.741638	1263.046265	-599.401306	-1026.456543	1349.982788	-405.265686	-909.595947	1259.767334	-417.492432	-967.261536	984.415283	-140.729279	-1037.709839	981.734436	-655.068481	-838.945374	801.861969	-174.764107	-927.237183	778.334259	-672.923706	-921.159851	874.029419	-273.412231	-899.923462	881.210022	-498.092224	-1101.134277	930.345703	-404.539398	-1091.629639	1148.823486	-402.780182	-877.116333	1065.820190	-401.835205	-943.524963	523.666687	-200.413498	-933.453064	435.232513	-253.505386	-1063.890625	318.783051	-227.226059	-1218.234497	195.901489	-317.493195	-1239.177856	228.479324	-369.856140	-1157.635376	75.886871	-339.108185	-920.463196	539.104004	-583.793518	-921.483521	440.444489	-525.126160	-914.842712	255.763367	-578.120911	-951.587097	56.855434	-474.482910	-993.363220	47.426266	-426.994232	-828.849609	44.753033	-441.611725
42	0.41000000	-932.852539	1270.884155	-219.112610	-962.107849	1264.699707	-598.813599	-1015.786438	1351.050171	-404.886383	-898.737915	1261.215210	-416.647705	-959.357666	984.788940	-141.454956	-1023.641113	983.063110	-655.583923	-833.770477	799.932678	-173.273766	-910.562042	781.110931	-673.432068	-910.432556	875.575867	-273.950775	-889.275696	881.660217	-498.725311	-1090.165894	931.826111	-405.434875	-1080.548828	1149.770020	-403.183990	-866.004761	1067.227539	-401.001251	-924.944031	526.529297	-200.868195	-911.632202	438.433899	-253.747314	-1039.124634	319.601990	-227.269058	-1191.603271	193.807510	-317.427704	-1213.913696	225.148758	-369.831787	-1126.142456	76.954079	-338.264008	-916.086792	538.847290	-584.214539	-918.377258	440.184631	-525.545105	-914.989685	255.412933	-578.464600	-951.577881	56.928860	-474.215088	-993.363159	47.453926	-426.724792	-828.915405	44.860168	-441.699127
43	0.42000000	-923.215454	1271.614502	-218.168243	-950.619019	1266.272095	-598.169678	-1005.186340	1352.013184	-404.445465	-887.965942	1262.567383	-415.746033	-951.547485	985.105774	-142.101273	-1009.561829	984.289612	-655.971741	-828.735931	798.010864	-171.687027	-893.794891	783.869263	-673.849579	-899.699402	877.147766	-274.507141	-878.674805	881.931641	-499.359955	-1079.214844	933.245117	-406.413055	-1069.539673	1150.612915	-403.555481	-854.968079	1068.563965	-400.140930	-906.555786	529.692139	-201.380630	-890.228455	441.893036	-254.085876	-1014.126465	319.915497	-227.370667	-1164.010742	190.314758	-317.362732	-1187.876221	220.332672	-369.746857	-1093.147461	77.213760	-337.721283	-911.750122	538.525208	-584.552063	-915.393555	439.886719	-525.880493	-915.144653	255.092957	-578.725464	-951.580688	56.996189	-473.922302	-993.368713	47.493477	-426.417542	-828.964783	44.923363	-441.759155
